<!-- Uploaded to: SVG Repo, www.svgrepo.com, Transformed by: SVG Repo Mixer Tools -->
<svg width="32px" height="32px" viewBox="0 0 1024 1024" version="1.1" xmlns="http://www.w3.org/2000/svg">
  <g>
    <path fill="#fff" d="M512 32C248 32 32 248 32 512s216 480 480 480 480-216 480-480S776 32 512 32z"/>
    <path fill="#1a1718" d="M512 0C228.8 0 0 228.8 0 512s228.8 512 512 512 512-228.8 512-512S795.2 0 512 0z m0 992C248 992 32 776 32 512S248 32 512 32s480 216 480 480-216 480-480 480z"/>
    <path fill="#1a1718" d="M784 496H528V240h-32v256H240v32h256v256h32V528h256z"/>
  </g>
</svg>